M48
;Layer_Color=6321
;FILE_FORMAT=4:4
METRIC,LZ
;TYPE=PLATED
T1F00S00C0.7112
T2F00S00C0.9906
T3F00S00C1.2000
T4F00S00C1.3000
%
T01
X0030226Y0013716
X0073279Y0011557
X0075438Y0013843
X0076962Y0007747
X008001Y0009017
X0094615Y0014732
X0086106Y0021209
X0083566Y0031369
X0074676Y0018796
X0051816Y0035052
X0052451Y0041402
X0030226Y0020447
T02
X0099695Y0012192
Y0014692
Y0017192
Y0019692
Y0028067
Y0030567
Y0033067
Y0035567
T03
X0025527Y0014478
Y0017018
Y0019558
T04
X0038862Y0016891
X005207Y0016764
Y0031623
X0038862Y003175
M30
