M48
;Layer_Color=6321
;FILE_FORMAT=4:4
METRIC,LZ
;TYPE=PLATED
T1F00S00C1.0000
%
T01
X0030226Y0013716
X0073279Y0011557
X0075438Y0013843
X0077597Y0008128
X0081915Y0008255
X0099695Y0012192
Y0014692
Y0017192
Y0019692
X0094615Y00192405
Y0014732
X0095504Y0030734
X00955275Y0033147
X0099695Y0033067
Y0035567
Y0030567
Y0028067
X0092075Y0020701
X0086106Y0021209
X0083566Y0031369
X0074676Y0018796
X005207Y0016764
X0044196Y0016891
X0036703
X0030226Y0020447
X0025527Y0019558
Y0017018
Y0014478
X0036703Y003175
X0044196
X005207Y0031623
X0051816Y0035052
X0052451Y0041402
M30
